PathFileType	4	(X/Y/Z)	..\data\SUBJ01\dynamic\walk.trc
DataRate	CameraRate	NumFrames	NumMarkers	Units	OrigDataRate	OrigDataStartFrame	OrigNumFrames
100.000000	100.000000	4	33	mm	100.000000	79	337
Frame#	Time	LFHD			RFHD			LBHD			RBHD			C7			T10			CLAV			STRN			LSHO			LELB			LWRA			LWRB			LFIN			RSHO			RELB			RWRA			RWRB			RFIN			LASI			RASI			SACR			LTHI			LKNE			LTIB			LANK			LHEE			LTOE			RTHI			RKNE			RTIB			RANK			RHEE			RTOE			
		X1	Y1	Z1	X2	Y2	Z2	X3	Y3	Z3	X4	Y4	Z4	X5	Y5	Z5	X6	Y6	Z6	X7	Y7	Z7	X8	Y8	Z8	X9	Y9	Z9	X10	Y10	Z10	X11	Y11	Z11	X12	Y12	Z12	X13	Y13	Z13	X14	Y14	Z14	X15	Y15	Z15	X16	Y16	Z16	X17	Y17	Z17	X18	Y18	Z18	X19	Y19	Z19	X20	Y20	Z20	X21	Y21	Z21	X22	Y22	Z22	X23	Y23	Z23	X24	Y24	Z24	X25	Y25	Z25	X26	Y26	Z26	X27	Y27	Z27	X28	Y28	Z28	X29	Y29	Z29	X30	Y30	Z30	X31	Y31	Z31	X32	Y32	Z32	X33	Y33	Z33	

80	1.74	936.4490356445315	1548.064086914063	-242.6356048583985	919.3227539062502	1518.52392578125	-122.3419647216797	783.6898193359377	1473.041625976563	-264.8161315917969	769.9136352539065	1449.75048828125	-134.4061279296875	736.1355590820314	1358.653076171875	-192.0121154785157	674.6090698242189	1135.906005859375	-202.6486053466797	885.1172485351565	1262.718994140625	-211.7937774658204	947.077575683594	1107.350341796875	-210.1077728271485	786.067077636719	1324.85009765625	-368.8455505371094	767.1199340820314	1029.9189453125	-477.0887756347657	885.227478027344	818.674743652344	-442.633270263672	849.161804199219	803.0933227539065	-495.3309326171876	919.2703247070315	732.0491943359376	-458.1496887207032	819.058044433594	1290.58935546875	-28.9633903503418	795.6257324218752	1002.964538574219	78.53565216064455	926.1834106445315	791.477478027344	35.53901672363282	867.959655761719	771.2395019531252	83.54856872558595	963.4721679687502	715.6897583007814	62.44158172607423	871.8367919921877	865.7441406250002	-334.9571838378907	873.3911743164065	876.4206542968752	-57.68004226684572	694.4749755859376	876.4204711914065	-192.1450958251954	865.268493652344	598.9069213867189	-414.3867187500001	927.170104980469	441.9452514648439	-342.1961364746094	763.0208740234376	295.9686584472657	-380.6281433105469	674.0280151367189	196.9087371826172	-325.8931274414063	626.0283203125001	233.6867218017579	-288.7523193359376	724.0252685546876	101.0693588256836	-293.3964538574219	854.8025512695315	584.3883666992189	-16.10608100891114	877.1531372070315	412.2526245117189	-104.470817565918	853.721618652344	176.8216552734375	-83.93270874023439	820.476013183594	60.62612915039064	-143.6914825439453	765.0186767578126	55.59705352783205	-195.0041503906251	931.4509887695315	43.27433776855469	-167.7268981933594	
81	1.75	946.9736938476565	1548.965454101563	-242.9262084960938	929.876403808594	1519.666870117188	-122.5816040039063	794.1170043945315	1474.05712890625	-264.9118347167969	780.3340454101565	1451.054565429688	-134.4321441650391	746.5001220703126	1359.780883789063	-191.8509368896485	685.0476684570314	1136.945190429688	-202.0080108642579	895.4860839843752	1263.894409179688	-211.8615417480469	957.5067138671877	1108.569580078125	-209.6679992675782	795.3818359375002	1325.483032226563	-368.8979492187501	771.7141113281252	1030.442504882813	-476.4924316406251	888.4375610351565	818.1694946289065	-444.4043579101564	851.1692504882815	802.9499511718752	-496.3411560058595	921.2622070312502	731.2055053710939	-460.6342773437501	830.0977783203127	1292.513549804688	-29.03219032287598	810.3233642578127	1005.52490234375	80.19247436523439	944.6549072265627	796.8321533203127	35.68305969238282	887.517761230469	775.4062500000002	84.41308593750001	983.8796386718752	721.8886108398439	62.09064102172853	883.3007812500002	867.1916503906252	-333.7122802734376	882.8552246093752	877.3830566406252	-56.5772171020508	704.9058227539064	877.4844360351565	-192.4585571289063	882.9313964843752	601.3796997070314	-413.7761840820314	946.9259033203127	445.616424560547	-340.5686340332032	788.792663574219	292.5234680175782	-379.9524230957032	703.3501586914064	190.1148681640625	-325.1966247558594	652.8785400390626	224.4948120117188	-288.6689147949219	758.5648193359376	97.994499206543	-292.1027832031251	860.4346313476565	584.7664794921876	-15.62476634979248	879.384460449219	412.063446044922	-104.1369323730469	854.0330200195315	176.6737518310547	-83.65394592285158	820.490661621094	60.65881347656251	-143.7388610839844	765.1953125000001	55.80931854248048	-195.0467987060547	931.5411376953127	43.16563034057618	-167.6744995117188	
82	1.76	957.4899902343752	1549.70361328125	-243.1714172363282	940.3950805664065	1520.629638671875	-122.7821273803711	804.5445556640627	1474.904663085938	-265.0026855468751	790.7412109375002	1452.175903320313	-134.4651641845703	756.8590087890626	1360.715942382813	-191.7005767822266	695.4952392578126	1137.800170898438	-201.4688720703126	905.8542480468752	1264.89599609375	-211.9148864746094	967.9458007812502	1109.6103515625	-209.2159576416016	804.7269287109377	1325.988037109375	-368.9554138183594	776.1377563476565	1030.902954101563	-475.8928833007814	891.7449951171877	817.7802734375002	-446.3574218750001	853.120788574219	802.8049316406252	-497.3121032714845	923.4185180664065	730.5490722656251	-463.3106689453126	841.0698852539065	1294.219360351563	-29.10996818542481	824.8801879882815	1007.911926269531	81.83251953125001	962.968688964844	802.1813964843752	35.82095336914063	906.9236450195315	779.5457153320315	85.20630645751955	1004.113403320313	728.1342773437501	61.71336364746095	894.7595214843752	868.406921386719	-332.4832763671876	892.3052978515627	878.173522949219	-55.5139617919922	715.3369750976564	878.3958129882815	-192.8240966796876	900.143493652344	603.8017578125001	-413.2547302246095	965.9404907226565	448.9852294921876	-338.9941711425782	814.5681152343752	288.3424682617188	-379.1650695800782	733.2342529296876	182.4282531738282	-324.3241882324219	680.3811645507814	214.1238861083985	-288.3254699707032	793.7780761718752	94.48258209228517	-290.6217956542969	866.1083984375002	585.1110839843751	-15.15999603271485	881.6655883789065	411.8826904296876	-103.8153381347657	854.3784179687502	176.5483093261719	-83.41152954101564	820.5267333984377	60.71453094482423	-143.7987518310547	765.3829956054689	56.03702926635744	-195.107406616211	931.6277465820315	43.04790115356446	-167.6107482910157	
83	1.77	967.9989013671877	1550.270385742188	-243.3808898925782	950.8886718750002	1521.401611328125	-122.951416015625	814.9751586914065	1475.572875976563	-265.0885314941407	801.144714355469	1453.099243164063	-134.5028991699219	767.2224121093751	1361.44775390625	-191.5623474121094	705.9556884765626	1138.461669921875	-201.0273590087891	916.2282714843752	1265.708129882813	-211.9539794921876	978.3972167968752	1110.455322265625	-208.7589263916016	814.124938964844	1326.354858398438	-369.0164489746094	780.4763793945315	1031.298217773438	-475.278045654297	895.1647949218752	817.4566650390627	-448.4711303710939	855.0504150390627	802.6251220703127	-498.2269592285157	925.7271728515627	730.0097045898439	-466.1414794921876	851.9692382812502	1295.6767578125	-29.18911361694337	839.2903442382815	1010.093139648438	83.45505523681642	981.1079101562502	807.4859619140627	35.95906066894532	926.1546020507815	783.618835449219	85.92948150634767	1024.152099609375	734.3860473632814	61.31974411010744	906.1903076171877	869.3680419921877	-331.2869567871094	901.7604980468752	878.7750244140627	-54.49768829345705	725.7708740234376	879.1458129882815	-193.211654663086	916.822692871094	606.0983886718751	-412.7999572753907	984.1660766601565	451.9901428222657	-337.4907836914063	840.3541259765627	283.4992065429688	-378.2680358886719	763.7349243164064	173.9865264892578	-323.2885437011719	708.6394042968751	202.7044677734376	-287.7259521484376	829.6182250976565	90.66867065429689	-288.9736328125001	871.842468261719	585.4045410156251	-14.712233543396	883.9960937500002	411.685516357422	-103.4918518066407	854.7776489257815	176.4383392333985	-83.2064895629883	820.587829589844	60.79541015625001	-143.871826171875	765.5750732421876	56.28470611572267	-195.1859283447266	931.706237792969	42.91442871093751	-167.5372619628907	
